<?xml version="1.0" standalone="no"?>
<!DOCTYPE svg PUBLIC "-//W3C//DTD SVG 20010904//EN"
 "http://www.w3.org/TR/2001/REC-SVG-20010904/DTD/svg10.dtd">
<svg version="1.0" xmlns="http://www.w3.org/2000/svg"
 width="800.000000pt" height="560.000000pt" viewBox="0 0 800.000000 560.000000"
 preserveAspectRatio="xMidYMid meet">
<metadata>
Created by potrace 1.16, written by Peter Selinger 2001-2019
</metadata>
<g transform="translate(0.000000,560.000000) scale(0.100000,-0.100000)"
fill="#000000" stroke="none">
<path d="M1345 5485 c-229 -36 -417 -122 -560 -256 -42 -39 -67 -52 -157 -82
-122 -41 -228 -92 -310 -150 -51 -35 -58 -44 -58 -73 0 -24 7 -38 26 -51 14
-10 90 -76 168 -148 77 -71 156 -142 174 -157 22 -18 32 -35 32 -55 1 -45 19
-113 50 -183 29 -66 127 -354 136 -401 4 -15 -7 -66 -25 -123 -17 -53 -31
-111 -30 -129 0 -28 1 -29 9 -11 5 12 14 25 21 30 9 5 10 2 5 -12 -17 -41 -36
-121 -36 -153 l0 -33 20 23 20 24 -5 -40 c-4 -22 -9 -53 -12 -70 l-5 -30 31
29 c17 16 33 27 36 24 3 -3 -1 -22 -8 -44 -55 -155 -68 -455 -28 -642 42 -200
106 -334 275 -576 196 -281 417 -491 668 -633 176 -99 488 -224 658 -263 30
-7 93 -34 140 -61 47 -26 118 -60 158 -75 64 -25 70 -29 50 -37 -26 -9 -75
-53 -90 -80 -9 -17 -7 -17 13 -7 12 7 47 16 78 20 86 12 241 -33 241 -70 0 -4
-33 -10 -72 -14 -87 -8 -197 -40 -232 -67 -14 -11 -35 -34 -47 -51 l-23 -31
25 7 c76 22 130 25 167 9 28 -12 56 -14 116 -9 l80 6 -50 -51 c-69 -72 -215
-193 -269 -224 -39 -24 -53 -27 -95 -21 -66 9 -135 34 -264 96 -107 52 -112
53 -193 52 -83 -1 -126 -14 -152 -46 -12 -14 -8 -16 30 -16 24 -1 55 -7 69
-15 23 -13 22 -14 -27 -8 -61 7 -173 -12 -226 -39 -74 -37 -189 -122 -213
-157 -31 -46 -30 -56 1 -35 15 10 62 20 111 25 49 5 123 22 172 39 97 34 174
38 257 16 60 -16 52 -20 -85 -41 -92 -14 -116 -22 -198 -67 -122 -68 -175
-134 -189 -235 l-6 -48 39 40 c27 28 69 53 130 79 49 21 105 48 124 60 24 16
58 25 110 30 41 3 102 13 136 21 77 18 516 23 586 6 64 -15 497 -18 523 -4 28
15 106 0 163 -32 24 -14 46 -25 49 -25 2 0 -3 13 -11 29 -23 44 -81 89 -174
134 l-87 41 -190 7 c-203 7 -245 13 -245 34 0 19 95 101 245 209 l128 94 121
-5 c76 -4 132 -11 150 -20 28 -15 29 -15 24 11 -6 32 0 32 46 1 38 -26 42 -23
26 19 -8 23 -7 26 11 26 11 0 37 -9 59 -20 23 -12 40 -16 42 -9 2 6 36 -5 78
-25 87 -41 252 -86 319 -86 50 0 123 -29 159 -62 12 -12 22 -16 22 -10 0 46
-103 183 -159 211 -20 11 -68 22 -106 26 -71 7 -165 29 -199 47 -16 8 12 25
165 100 169 82 188 89 232 85 44 -4 60 4 37 18 -36 23 50 36 91 15 22 -12 24
-7 8 22 -11 20 -10 21 65 16 63 -4 74 -3 65 8 -17 20 10 27 91 22 72 -4 79 -1
57 21 -10 11 -6 13 21 9 34 -5 39 1 20 20 -9 9 -2 12 33 12 37 1 41 2 25 12
-16 9 0 17 106 52 70 23 148 55 175 72 37 23 70 33 137 43 114 16 274 57 499
128 l178 56 58 -16 c32 -9 174 -64 317 -122 377 -154 584 -219 849 -266 172
-30 415 -37 525 -15 96 20 160 49 167 77 3 10 10 19 17 19 24 0 115 54 126 75
16 30 5 74 -29 115 l-28 34 31 16 c17 8 32 23 34 33 7 38 -82 110 -225 181
-115 56 -195 85 -563 200 -514 160 -738 244 -895 335 -55 32 -140 80 -190 106
-49 27 -112 66 -140 87 -27 22 -89 69 -138 107 -99 76 -211 145 -307 187 -36
16 -97 52 -136 80 -39 28 -111 70 -160 94 -49 24 -111 61 -139 81 -27 20 -86
55 -131 77 -44 22 -107 63 -138 90 -32 27 -114 84 -183 128 -76 48 -139 96
-161 122 -32 39 -82 85 -328 304 -149 133 -362 270 -574 371 -68 33 -230 95
-359 138 -130 44 -239 83 -243 87 -4 4 -16 41 -27 81 -15 58 -16 71 -5 67 11
-4 11 1 -2 32 -9 20 -17 46 -18 57 -2 12 -11 33 -21 48 -17 26 -17 27 0 21 13
-5 6 10 -22 52 -21 32 -65 105 -97 162 -98 175 -210 300 -356 397 -89 59 -335
177 -425 204 -172 50 -400 65 -580 36z m419 -46 c142 -24 412 -139 559 -236
76 -51 201 -163 219 -197 6 -11 -18 6 -53 38 -122 111 -336 238 -524 311 -101
40 -288 85 -350 85 -30 0 -57 5 -61 11 -7 12 104 5 210 -12z m-730 -740 c-3
-5 3 -9 13 -9 14 0 15 -2 5 -9 -10 -6 -6 -10 15 -15 41 -11 60 -32 78 -87 9
-27 22 -52 29 -56 8 -5 23 -27 35 -50 12 -24 27 -43 34 -43 6 0 20 -14 29 -30
18 -32 42 -42 31 -12 -4 9 7 3 26 -15 33 -34 51 -41 51 -23 0 7 6 7 19 0 26
-13 34 -13 25 2 -5 8 -2 9 12 4 41 -16 77 -20 69 -7 -5 10 4 11 39 6 32 -5 46
-4 46 4 0 8 17 10 53 6 28 -3 46 -2 40 1 -31 14 -7 21 59 17 67 -4 71 -3 57
13 -13 16 -12 16 8 6 29 -16 34 -15 26 4 -5 14 -2 14 28 -2 33 -16 33 -16 19
1 -14 16 -13 17 8 11 18 -6 21 -4 15 11 -6 16 -5 16 10 4 16 -13 17 -12 7 15
-10 26 -10 27 7 13 35 -30 46 -34 33 -10 -8 17 0 13 37 -15 29 -22 49 -32 51
-24 3 7 15 1 33 -16 l29 -28 0 24 c0 23 0 23 21 4 12 -10 27 -31 35 -46 13
-25 13 -27 -3 -21 -14 6 -14 2 5 -21 12 -16 19 -33 16 -38 -3 -5 0 -16 8 -25
12 -15 11 -15 -12 -3 -24 13 -25 12 -7 -7 23 -26 22 -36 -3 -23 -50 27 -8 -24
56 -68 18 -12 17 -13 -5 -8 -23 5 -23 4 5 -25 l29 -31 -30 8 -30 7 24 -27 c22
-23 22 -26 6 -26 -17 0 -17 -1 -2 -18 22 -24 21 -31 -3 -25 -11 3 -20 0 -20
-6 0 -6 10 -13 23 -15 64 -13 87 -15 87 -6 0 6 9 10 19 10 11 0 27 3 36 6 13
5 14 8 3 15 -8 6 1 9 26 9 37 0 39 1 20 15 -17 13 -15 14 34 15 50 0 71 14 35
23 -10 3 -3 5 16 6 33 1 34 2 15 16 -19 14 -18 14 4 15 12 0 22 5 22 10 0 6
10 10 23 10 18 0 19 2 7 11 -12 9 -11 10 8 6 12 -3 22 -1 22 3 0 5 12 10 28
12 21 2 29 11 38 37 11 33 11 33 19 10 6 -21 9 -18 19 24 9 38 14 45 24 35 9
-9 12 -5 13 22 0 29 2 31 9 15 7 -17 9 -14 9 14 1 29 3 32 16 21 13 -11 15 -7
15 29 0 27 4 40 10 36 7 -4 8 3 4 22 -15 62 9 10 27 -59 23 -91 25 -122 4
-114 -11 4 -15 -1 -15 -19 0 -14 5 -25 10 -25 6 0 10 -14 10 -31 0 -28 5 -33
87 -71 86 -39 153 -58 153 -43 0 12 -50 78 -74 97 -19 15 -15 15 36 -2 111
-36 161 -70 106 -70 -45 0 -53 -15 -28 -50 54 -76 126 -104 199 -79 39 14 39
28 -2 57 l-32 23 30 -7 c46 -10 85 -33 85 -48 0 -8 -12 -19 -27 -24 -25 -9
-21 -11 32 -12 56 -2 57 -3 22 -10 -61 -11 -63 -23 -15 -65 62 -53 114 -78
149 -70 16 4 29 11 29 16 0 5 11 3 25 -3 22 -10 23 -13 10 -20 -51 -29 45
-138 122 -138 26 0 37 -7 57 -36 13 -20 22 -43 19 -50 -8 -21 -34 -17 -40 6
-5 20 -94 60 -133 60 -11 0 -20 7 -20 15 0 58 -146 150 -163 103 -8 -25 17
-58 60 -79 46 -22 54 -36 11 -20 -14 5 -45 28 -68 50 -36 34 -41 43 -30 56 18
22 -5 45 -91 90 -83 43 -112 43 -117 0 -3 -24 3 -36 30 -59 18 -15 24 -24 13
-18 -33 17 -78 69 -70 82 4 7 -11 29 -38 54 -48 47 -102 62 -178 50 -42 -7
-47 -15 -24 -34 8 -7 12 -17 8 -23 -3 -6 -1 -7 5 -3 7 4 27 -4 45 -18 50 -39
106 -58 142 -52 33 7 45 -4 45 -40 0 -52 -219 55 -258 126 -13 24 -13 24 -8
-9 9 -48 -5 -60 -58 -50 -49 9 -213 62 -263 85 -39 18 -44 18 -37 -1 4 -9 -3
-16 -21 -21 -20 -5 -23 -9 -13 -15 10 -7 10 -9 -2 -9 -13 0 -13 -1 0 -10 12
-7 8 -11 -17 -16 -18 -4 -31 -10 -28 -14 3 -4 -24 -11 -60 -15 -65 -7 -90 -20
-61 -31 12 -5 9 -11 -17 -28 -17 -12 -32 -26 -31 -31 1 -15 104 -64 150 -71
36 -5 45 -2 76 25 27 23 35 27 34 14 -1 -18 45 -35 126 -46 41 -6 51 -3 76 18
34 28 67 32 76 9 5 -13 0 -15 -27 -10 -31 6 -32 6 -10 -10 12 -8 32 -24 43
-34 l22 -19 -25 -6 c-54 -14 -150 5 -229 44 l-77 37 15 -27 c19 -37 19 -37
-22 -45 -84 -16 -218 51 -266 133 -19 32 -43 46 -32 20 4 -11 -21 -15 -118
-20 -165 -9 -198 -15 -190 -35 4 -12 1 -14 -13 -8 -11 4 -43 4 -72 0 -45 -5
-52 -9 -42 -21 10 -12 5 -13 -32 -7 -40 7 -43 6 -30 -9 17 -21 13 -21 -32 -2
-20 8 -42 15 -48 15 -8 0 -8 -4 1 -15 18 -22 -3 -19 -42 5 -37 22 -53 26 -42
8 4 -7 3 -8 -5 -4 -6 4 -9 11 -6 16 8 12 -33 33 -51 26 -9 -3 -30 2 -47 11
-31 16 -32 16 -17 -3 8 -10 20 -23 25 -27 6 -5 1 -6 -10 -2 -53 19 -58 19 -48
1 16 -28 4 -64 -23 -70 -13 -4 -24 -12 -24 -18 0 -7 -12 -25 -27 -41 -19 -19
-22 -26 -10 -22 32 13 17 -10 -38 -58 -55 -49 -70 -72 -37 -60 14 5 14 2 -4
-18 -12 -13 -25 -31 -29 -39 -8 -13 -7 -13 8 -1 22 18 32 9 18 -17 -24 -46
-10 -53 23 -13 38 45 48 39 39 -26 -6 -45 19 -179 42 -223 9 -17 13 -36 9 -42
-4 -6 -3 -8 3 -5 14 9 35 -17 25 -29 -4 -5 -3 -6 1 -2 5 3 32 -4 60 -17 29
-13 81 -29 116 -34 86 -14 88 -21 5 -20 -74 0 -161 27 -156 48 1 7 -2 9 -9 6
-15 -10 -68 42 -87 85 l-16 35 -7 -30 c-3 -16 -7 -54 -8 -83 -1 -44 3 -57 24
-78 34 -34 102 -63 172 -73 l58 -9 -65 -1 c-74 -3 -56 -18 27 -23 46 -3 48 -2
45 22 -2 23 -1 23 36 -13 33 -32 48 -39 95 -44 30 -3 67 -3 81 1 31 8 43 44
26 76 -13 25 -14 25 58 -24 31 -21 58 -31 95 -33 85 -6 116 21 92 82 -7 17 -3
15 21 -7 48 -44 76 -50 151 -33 66 15 123 42 123 58 0 4 -5 17 -11 28 -10 20
-10 20 30 0 64 -33 153 -22 190 23 12 14 11 19 -3 35 -17 19 -16 19 24 5 44
-15 107 -6 144 22 19 13 19 14 0 36 -19 21 -19 21 1 13 42 -17 82 -17 99 0 9
10 15 24 12 31 -4 10 3 14 23 14 37 0 77 32 92 74 8 21 24 39 43 49 61 28 96
66 96 102 l0 33 61 4 c33 2 64 10 68 16 4 8 38 11 96 11 63 -1 99 3 118 14 21
11 37 13 60 6 18 -5 45 -9 61 -9 25 0 27 -2 15 -16 -10 -13 -24 -15 -61 -11
-38 5 -48 3 -48 -8 0 -11 -13 -15 -49 -15 -40 0 -50 -3 -54 -20 -4 -15 -14
-20 -40 -20 -29 0 -36 -4 -41 -25 -4 -17 -17 -28 -45 -36 -29 -9 -41 -18 -46
-38 -8 -33 -21 -41 -71 -41 -34 0 -43 -4 -52 -25 -9 -19 -19 -25 -44 -25 -41
0 -78 -34 -78 -72 0 -17 -10 -39 -24 -53 -20 -20 -30 -23 -62 -18 -37 6 -38 6
-21 -11 21 -22 21 -29 0 -48 -18 -16 -136 -50 -128 -37 3 4 -2 10 -11 13 -8 3
-12 2 -9 -4 8 -13 -32 -36 -99 -55 -46 -14 -67 -15 -94 -7 -32 10 -33 10 -18
-7 31 -35 12 -52 -78 -71 -59 -12 -118 -7 -171 15 l-31 12 4 -32 c4 -32 3 -33
-48 -44 -81 -17 -158 -14 -195 9 l-31 19 4 -28 c6 -45 -23 -55 -151 -56 -105
0 -110 1 -131 26 l-22 26 -11 -23 c-9 -19 -7 -26 11 -39 20 -15 20 -15 -14
-10 -33 6 -34 5 -15 -10 11 -9 45 -23 75 -33 l55 -17 -50 -5 -50 -5 60 -13
c90 -21 109 -30 60 -32 l-40 -1 61 -29 c68 -31 99 -61 39 -36 -65 27 -73 17
-10 -12 65 -31 113 -72 61 -52 -15 5 -37 10 -49 10 -16 0 -8 -8 28 -28 28 -15
76 -45 108 -65 68 -44 205 -81 338 -92 71 -6 94 -4 146 14 58 19 66 20 120 7
32 -8 93 -20 135 -27 81 -12 93 -22 82 -64 -7 -27 -59 -53 -129 -64 l-50 -7
83 -27 c110 -36 299 -73 441 -88 212 -22 585 -1 691 39 15 5 107 6 230 1 113
-4 345 -8 516 -8 l312 -1 52 -35 c54 -36 125 -63 137 -51 4 3 -2 13 -13 22
-18 14 -17 14 6 3 14 -7 36 -20 49 -30 31 -24 49 -24 28 -1 -10 10 -17 21 -17
25 0 8 102 -27 132 -46 12 -8 46 -23 75 -33 29 -9 49 -22 46 -27 -3 -6 -1 -7
5 -3 6 4 21 2 33 -5 18 -9 19 -13 8 -21 -10 -7 -7 -7 9 -3 13 4 29 2 37 -5 7
-6 33 -12 57 -12 32 -1 38 -3 23 -9 -19 -8 -19 -8 2 -14 12 -4 25 -16 28 -26
4 -11 11 -17 16 -14 5 4 16 -1 25 -9 9 -9 20 -13 25 -10 6 3 20 -2 31 -13 12
-10 18 -12 13 -4 -6 11 -5 12 6 5 13 -8 41 -12 97 -15 23 -1 23 -1 4 -15 -44
-31 -499 -165 -627 -184 -50 -8 -118 -29 -180 -56 -111 -47 -229 -86 -323
-105 -38 -8 -57 -16 -49 -21 7 -4 -12 -8 -43 -8 l-55 0 43 -20 c23 -10 42 -20
42 -22 0 -2 -18 -2 -40 0 -25 3 -40 0 -40 -7 0 -7 -29 -11 -81 -11 -64 0 -79
-3 -71 -12 8 -10 -4 -12 -59 -10 -45 2 -69 0 -69 -7 0 -7 -23 -11 -59 -11 -58
0 -89 -13 -54 -24 10 -3 7 -4 -7 -3 -15 2 -24 8 -22 15 1 8 -2 11 -8 7 -6 -3
-8 -11 -5 -16 4 -5 -5 -9 -19 -9 -37 0 -116 -32 -170 -69 -26 -18 -79 -48
-118 -66 -62 -28 -69 -34 -52 -43 16 -10 13 -11 -21 -12 l-40 -1 23 -18 c28
-24 29 -35 2 -21 -11 6 -46 10 -78 8 l-57 -3 30 -17 30 -17 -65 6 c-58 6 -64
5 -52 -9 12 -14 8 -16 -28 -11 -32 5 -39 3 -35 -8 4 -11 -7 -13 -57 -11 -35 1
-74 5 -88 8 -14 3 -79 61 -150 133 -148 150 -183 175 -281 202 -41 11 -135 49
-209 85 -74 36 -173 77 -220 91 -236 68 -546 206 -692 305 -297 204 -457 370
-618 638 -30 50 -62 100 -71 110 -9 10 -20 41 -24 69 -4 28 -11 51 -16 51 -5
0 -9 24 -9 53 0 36 -3 47 -10 37 -8 -12 -10 -12 -16 4 -8 20 2 221 12 252 4
15 1 14 -17 -6 l-22 -25 7 58 c3 31 15 80 25 107 20 53 12 66 -15 25 -9 -14
-19 -24 -21 -21 -9 8 26 117 55 170 28 53 29 74 2 41 -7 -9 -15 -14 -17 -11
-8 7 36 84 68 121 33 38 25 46 -19 18 -26 -18 -26 -17 7 30 18 27 47 65 65 85
29 34 21 36 -16 5 -29 -25 -11 17 28 66 33 42 34 43 42 20 8 -21 10 -20 17 16
4 22 10 34 12 28 11 -30 18 -8 20 60 l2 72 -18 -40 -18 -40 -6 46 c-3 25 -9
53 -13 64 -6 15 -4 17 9 12 15 -5 16 -3 7 12 -5 11 -21 28 -35 39 -17 13 -21
22 -13 25 7 2 -3 11 -22 19 -38 16 -80 55 -45 41 18 -6 18 -5 2 17 -23 32 -21
39 5 32 22 -5 22 -5 5 19 -9 13 -22 32 -28 42 -9 17 -8 17 10 7 30 -16 26 -1
-10 36 -29 29 -29 32 -9 27 21 -6 21 -5 -4 20 -30 30 -34 49 -9 40 14 -6 13
-1 -5 22 -14 18 -19 31 -12 33 6 2 -9 22 -32 44 -24 22 -35 37 -24 34 13 -5 8
6 -18 34 -37 41 -45 75 -26 111 13 24 30 25 31 2 1 -16 2 -16 6 0 5 18 5 18
19 0 11 -14 14 -14 13 -3 -1 8 -1 24 1 35 1 20 2 20 9 0 7 -16 9 -14 14 14 4
18 11 30 16 26 10 -6 31 55 31 90 0 11 -9 35 -21 54 -15 26 -17 36 -8 42 15 9
41 0 33 -12z m2843 -1059 c-3 -12 0 -20 7 -20 29 0 123 -149 110 -173 -4 -6
-4 -9 1 -5 4 4 14 -3 21 -17 15 -29 25 -85 16 -85 -4 0 -43 11 -87 24 -44 13
-114 29 -155 35 -41 6 -90 14 -109 17 -23 4 -30 8 -22 14 7 4 26 3 42 -3 23
-9 40 -8 81 7 42 14 62 15 96 8 44 -10 73 3 71 31 0 8 -2 8 -6 -1 -6 -15 -43
53 -43 80 0 9 -5 20 -11 23 -6 4 -8 14 -4 23 3 9 3 13 -1 10 -3 -4 -12 -2 -19
5 -9 9 -9 16 -1 29 14 24 20 23 13 -2z m299 -76 c33 -23 77 -61 98 -84 35 -39
90 -139 81 -148 -2 -2 -34 22 -71 53 -37 31 -76 62 -86 68 -10 7 -18 18 -18
25 0 22 -30 75 -64 111 -36 39 -25 35 60 -25z m-2715 -154 c26 -102 104 -254
159 -312 59 -60 130 -83 240 -75 41 3 84 2 95 -2 18 -7 17 -9 -10 -23 -78 -39
-183 -44 -246 -12 -43 22 -90 65 -82 76 3 7 1 8 -5 4 -6 -3 -16 2 -21 13 -6
11 -18 26 -26 35 -22 21 -97 152 -123 212 -36 85 -42 172 -11 162 6 -2 20 -37
30 -78z m2793 -22 c50 -33 112 -106 122 -146 14 -50 -12 -44 -107 24 -52 37
-96 69 -97 70 -10 7 11 84 22 84 7 0 34 -14 60 -32z m-2399 -141 c38 -73 80
-132 111 -156 15 -12 23 -25 18 -32 -4 -7 -3 -9 3 -6 5 3 27 0 49 -8 21 -8 53
-14 70 -15 38 0 123 24 149 44 18 13 16 15 -36 41 -63 32 -117 68 -178 119
l-43 36 84 0 83 0 18 -44 c45 -109 130 -148 271 -126 41 7 80 10 87 8 24 -8
-66 -41 -131 -48 -36 -4 -84 -17 -107 -29 -127 -64 -255 -49 -385 47 -65 48
-218 208 -218 228 0 17 14 18 41 4 20 -11 28 3 9 15 -5 3 -10 10 -10 15 0 5
20 -3 44 -16 32 -18 52 -39 71 -77z m2380 -72 c82 -33 110 -49 110 -62 0 -53
-221 -58 -340 -8 l-39 17 72 33 c44 21 72 40 72 49 0 9 3 16 8 16 4 0 57 -20
117 -45z m-100 -144 c28 -10 73 -21 100 -24 28 -3 51 -6 51 -6 1 -1 7 -14 14
-30 24 -58 -23 -91 -131 -91 -72 0 -152 17 -201 41 -21 11 -38 21 -38 23 0 2
27 13 61 26 44 16 66 30 77 51 10 16 17 29 17 29 0 0 23 -9 50 -19z m-162
-150 c31 -11 78 -22 104 -26 84 -11 93 -14 93 -36 0 -34 -18 -56 -60 -73 -59
-24 -141 -19 -265 15 -60 17 -121 30 -134 31 -15 0 -19 3 -12 7 8 5 -5 16 -36
29 -55 24 -51 26 32 12 86 -14 151 -3 189 31 17 16 31 29 32 29 0 0 26 -9 57
-19z m-242 -132 c26 -10 76 -24 113 -30 69 -13 81 -24 67 -63 -17 -43 -72 -59
-185 -53 -97 4 -183 27 -301 78 -30 12 -29 13 35 20 65 7 137 33 175 63 11 8
27 13 35 9 8 -3 36 -14 61 -24z m-270 -124 c24 -9 76 -18 116 -22 40 -3 73 -8
73 -10 0 -2 -7 -19 -15 -39 -31 -74 -185 -98 -351 -53 -43 12 -95 21 -114 21
-23 -1 -29 2 -17 6 14 6 2 15 -49 40 -36 18 -64 35 -62 38 3 2 29 -1 58 -7 81
-17 219 -8 261 18 42 26 46 27 100 8z m-621 -122 c86 -24 247 -29 293 -9 36
15 42 14 98 -4 32 -11 93 -23 134 -27 85 -7 93 -17 47 -63 -88 -87 -334 -57
-572 71 -76 41 -114 69 -75 55 11 -4 45 -14 75 -23z m-405 -115 c103 -28 282
-36 340 -14 41 16 49 16 92 2 62 -19 156 -36 207 -36 67 0 74 -12 32 -57 -49
-55 -98 -68 -229 -60 -151 10 -303 55 -457 138 -75 40 -115 70 -75 54 11 -4
52 -16 90 -27z"/>
<path d="M1860 4312 c0 -6 6 -13 13 -15 23 -10 -21 -7 -47 3 -20 7 -24 6 -19
-6 4 -12 1 -13 -22 -4 -39 15 -60 13 -46 -3 8 -11 4 -13 -22 -9 -29 5 -31 4
-18 -12 13 -16 12 -17 -15 -11 l-29 6 25 -15 c24 -14 22 -15 -30 -10 -52 5
-54 5 -35 -11 19 -16 18 -17 -25 -10 -37 6 -43 5 -33 -6 9 -12 3 -14 -38 -14
-51 1 -57 -3 -37 -23 20 -20 -12 -15 -50 8 -41 25 -45 25 -37 -1 6 -18 5 -19
-13 -10 -12 6 -24 16 -27 21 -3 6 -11 10 -16 10 -12 0 17 -57 45 -89 20 -23
20 -24 1 -17 -16 6 -14 1 9 -23 19 -20 25 -31 16 -31 -8 0 0 -10 17 -22 36
-25 43 -41 16 -31 -10 3 0 -11 22 -31 23 -21 31 -32 18 -26 -39 18 -38 11 7
-35 43 -43 68 -58 55 -32 -4 6 9 -5 28 -25 39 -43 53 -49 37 -15 -8 15 -2 11
17 -11 31 -36 49 -43 33 -13 -17 32 -11 36 16 10 l25 -24 -11 29 c-9 25 -8 27
7 21 38 -16 136 -45 150 -45 14 0 14 3 -2 20 -17 19 -17 19 16 10 19 -6 45
-10 59 -10 l25 1 -25 14 c-24 14 -23 14 25 15 31 0 45 3 37 9 -10 6 -4 10 19
15 31 6 32 7 13 21 -18 14 -18 14 6 15 23 1 24 2 7 14 -15 12 -13 14 25 20 32
5 39 9 28 16 -13 8 -12 10 3 10 19 0 24 19 5 21 -7 1 1 5 17 9 l30 7 -27 11
c-33 14 -37 26 -6 16 21 -6 22 -5 8 11 -14 17 -13 18 5 12 13 -4 7 4 -15 24
-22 19 -28 27 -15 23 16 -6 14 0 -10 26 -16 18 -24 30 -17 26 18 -11 15 5 -5
21 -17 14 -17 14 0 9 18 -6 17 3 -7 33 -6 7 -11 21 -11 30 0 9 -24 27 -56 43
-64 32 -119 46 -119 30z"/>
<path d="M2751 4025 c-11 -15 -21 -36 -21 -46 0 -20 42 -57 77 -65 34 -9 110
5 128 22 18 19 10 36 -33 67 -17 13 -30 26 -28 28 3 2 -5 4 -17 5 -12 1 -36 5
-53 9 -26 6 -34 3 -53 -20z"/>
<path d="M3548 1903 c26 -10 11 -24 -20 -17 -28 6 -31 5 -20 -9 7 -8 37 -25
67 -38 54 -24 76 -47 34 -36 -35 9 -8 -10 31 -22 32 -10 30 -10 -23 -6 -31 3
-76 12 -99 20 -48 16 -66 12 -22 -6 24 -9 26 -12 12 -18 -13 -5 -7 -10 27 -22
36 -13 43 -14 34 -3 -6 8 -8 14 -5 14 14 0 72 -33 94 -53 19 -18 22 -18 22 -3
0 13 6 10 28 -12 38 -39 81 -66 90 -58 3 4 0 11 -8 16 -8 5 -12 11 -9 15 3 3
32 -8 65 -25 32 -16 68 -30 78 -30 20 0 20 0 0 15 -17 12 -17 14 -2 15 9 0 29
-5 44 -10 47 -18 37 -3 -17 27 l-53 28 40 6 c21 3 30 7 19 8 -32 2 -124 39
-163 66 l-37 25 35 0 c26 0 31 3 20 10 -8 5 -26 10 -40 10 -35 0 -168 48 -150
54 8 3 24 7 35 9 14 3 12 5 -8 6 -15 0 -44 8 -64 16 -19 8 -38 15 -42 14 -3 0
0 -3 7 -6z"/>
</g>
</svg>
